<svg xmlns="http://www.w3.org/2000/svg" width="20" height="20" viewBox="0 0 20 20" fill="none">
  <path d="M10 4.58332L9.55002 5.01666C9.60832 5.07714 9.67822 5.12526 9.75554 5.15812C9.83286 5.19098 9.91601 5.20792 10 5.20792C10.084 5.20792 10.1672 5.19098 10.2445 5.15812C10.3218 5.12526 10.3917 5.07714 10.45 5.01666L10 4.58332ZM7.85502 15.2683C6.59169 14.2725 5.21085 13.3 4.11502 12.0667C3.04169 10.8567 2.29169 9.44582 2.29169 7.61416H1.04169C1.04169 9.83582 1.96669 11.5308 3.18085 12.8967C4.37252 14.2383 5.89252 15.3133 7.08085 16.25L7.85502 15.2683ZM2.29169 7.61416C2.29169 5.82249 3.30419 4.31915 4.68669 3.68666C6.03002 3.07249 7.83502 3.23499 9.55002 5.01666L10.45 4.15082C8.41669 2.03666 6.05335 1.68749 4.16669 2.54999C2.32169 3.39416 1.04169 5.35416 1.04169 7.61416H2.29169ZM7.08085 16.25C7.50835 16.5867 7.96669 16.945 8.43085 17.2167C8.89502 17.4883 9.42502 17.7083 10 17.7083V16.4583C9.74169 16.4583 9.43835 16.3583 9.06169 16.1375C8.68419 15.9175 8.29335 15.6142 7.85502 15.2683L7.08085 16.25ZM12.9192 16.25C14.1075 15.3125 15.6275 14.2392 16.8192 12.8967C18.0334 11.53 18.9584 9.83582 18.9584 7.61416H17.7084C17.7084 9.44582 16.9584 10.8567 15.885 12.0667C14.7892 13.3 13.4084 14.2725 12.145 15.2683L12.9192 16.25ZM18.9584 7.61416C18.9584 5.35416 17.6792 3.39416 15.8334 2.54999C13.9467 1.68749 11.585 2.03666 9.55002 4.14999L10.45 5.01666C12.165 3.23582 13.97 3.07249 15.3134 3.68666C16.6959 4.31915 17.7084 5.82166 17.7084 7.61416H18.9584ZM12.145 15.2683C11.7067 15.6142 11.3159 15.9175 10.9384 16.1375C10.5609 16.3575 10.2584 16.4583 10 16.4583V17.7083C10.575 17.7083 11.105 17.4875 11.5692 17.2167C12.0342 16.945 12.4917 16.5867 12.9192 16.25L12.145 15.2683Z" fill="#461B93"/>
</svg>
