<svg xmlns="http://www.w3.org/2000/svg" width="21" height="21" viewBox="0 0 21 21" fill="none">
  <path d="M0.38868 6.69763C0.270084 6.76284 0.171341 6.85891 0.102918 6.97568C0.0344955 7.09245 -0.0010566 7.22555 3.07061e-05 7.36088C0.00111801 7.49622 0.0388043 7.62873 0.109094 7.74439C0.179384 7.86004 0.279659 7.95452 0.399287 8.0178L7.70865 11.8878L13.7304 5.86608C13.871 5.72542 14.0618 5.64641 14.2607 5.64641C14.4596 5.64641 14.6504 5.72542 14.791 5.86608C14.9317 6.00673 15.0107 6.19749 15.0107 6.39641C15.0107 6.59532 14.9317 6.78609 14.791 6.92674L8.76931 12.9485L12.6393 20.2578C12.7027 20.3772 12.7972 20.4773 12.9128 20.5474C13.0285 20.6175 13.1609 20.6551 13.2961 20.6561C13.4313 20.6571 13.5643 20.6215 13.6809 20.5532C13.7976 20.4848 13.8936 20.3862 13.9588 20.2677C17.2763 14.2301 19.5384 7.67027 20.6473 0.871074C20.6665 0.753633 20.6575 0.633304 20.621 0.520032C20.5845 0.406759 20.5216 0.303796 20.4375 0.219648C20.3533 0.1355 20.2503 0.0725824 20.1371 0.0360967C20.0238 -0.000388965 19.9035 -0.00939625 19.786 0.00981799C12.9866 1.11843 6.42653 3.38023 0.38868 6.69763Z" fill="#461B93"/>
</svg>
