<svg xmlns="http://www.w3.org/2000/svg" width="24" height="24" viewBox="0 0 24 24" fill="none">
  <path d="M21.194 2.80605C21.7102 3.32232 22.0002 4.02249 22.0002 4.75255C22.0002 5.48261 21.7102 6.18277 21.194 6.69905L20.698 7.19505C20.5177 7.1546 20.3397 7.10419 20.165 7.04405C19.4237 6.78433 18.7509 6.36004 18.197 5.80305C17.64 5.2492 17.2157 4.57636 16.956 3.83505C16.8962 3.66029 16.8461 3.48235 16.806 3.30205L17.301 2.80605C17.8173 2.28986 18.5174 1.99988 19.2475 1.99988C19.9776 1.99988 20.6777 2.28986 21.194 2.80605ZM14.58 13.313C14.176 13.717 13.974 13.919 13.751 14.093C13.4882 14.2979 13.2038 14.4736 12.903 14.617C12.648 14.738 12.377 14.828 11.835 15.009L8.977 15.962C8.8461 16.0059 8.70556 16.0124 8.57119 15.9807C8.43682 15.949 8.31394 15.8805 8.21638 15.7829C8.11881 15.6852 8.05043 15.5622 8.01892 15.4278C7.98741 15.2934 7.99402 15.1529 8.038 15.022L8.991 12.165C9.171 11.623 9.261 11.352 9.383 11.097C9.52767 10.795 9.70233 10.5124 9.907 10.249C10.081 10.026 10.283 9.82405 10.687 9.41905L15.603 4.50405C15.9412 5.39037 16.4637 6.19478 17.136 6.86405C17.8053 7.53636 18.6097 8.05889 19.496 8.39705L14.58 13.313Z" fill="currentColor"/>
  <path d="M20.536 20.536C22 19.07 22 16.714 22 12C22 10.452 22 9.158 21.948 8.066L15.586 14.428C15.235 14.78 14.971 15.044 14.674 15.275C14.3258 15.5478 13.9485 15.7812 13.549 15.971C13.209 16.133 12.855 16.251 12.383 16.408L9.451 17.385C9.05599 17.5167 8.63211 17.5358 8.22686 17.4401C7.82161 17.3445 7.45101 17.1378 7.15658 16.8434C6.86215 16.549 6.65553 16.1784 6.55988 15.7731C6.46422 15.3679 6.48331 14.944 6.615 14.549L7.592 11.617C7.749 11.145 7.867 10.791 8.029 10.451C8.22033 10.051 8.45233 9.676 8.725 9.326C8.956 9.029 9.22 8.766 9.572 8.414L15.934 2.052C14.842 2 13.548 2 12 2C7.286 2 4.929 2 3.464 3.464C2 4.93 2 7.286 2 12C2 16.714 2 19.071 3.464 20.535C4.93 22 7.286 22 12 22C16.714 22 19.071 22 20.535 20.535" fill="currentColor"/>
</svg>